<svg fill="#999999" xmlns="http://www.w3.org/2000/svg" xmlns:xlink="http://www.w3.org/1999/xlink" version="1.1" x="0px" y="0px" viewBox="0 0 32 32" style="enable-background:new 0 0 32 32;" xml:space="preserve"><g><path d="M21.3,5c-2.9-1.3-6.2-1.4-9.2-0.2C10.1,5.6,8.3,6.9,7,8.6L6.5,6.8C6.4,6.2,5.9,5.9,5.3,6C4.8,6.2,4.5,6.7,4.6,7.2l1,4.1   c0.1,0.5,0.5,0.8,1,0.8c0.1,0,0.2,0,0.2,0l4.1-1c0.5-0.1,0.9-0.7,0.7-1.2C11.6,9.3,11,9,10.5,9.2L8.8,9.6c1.1-1.3,2.4-2.3,4-2.9   c2.5-1,5.2-0.9,7.7,0.2c2.4,1.1,4.3,3,5.3,5.5c1,2.5,0.9,5.2-0.2,7.7s-3,4.3-5.5,5.3c-3.5,1.3-7.4,0.7-10.2-1.8   c-1.2-1.1-2.2-2.4-2.8-3.9c-0.2-0.5-0.8-0.8-1.3-0.6c-0.5,0.2-0.8,0.8-0.6,1.3c0.7,1.8,1.9,3.5,3.3,4.7c2.2,1.9,5,2.9,7.9,2.9   c1.5,0,2.9-0.3,4.3-0.8c3-1.2,5.3-3.4,6.6-6.3c1.3-2.9,1.4-6.2,0.2-9.2S24.3,6.3,21.3,5z"></path><path d="M16.5,10c-0.6,0-1,0.4-1,1v6c0,0.3,0.1,0.6,0.4,0.8l4,3c0.2,0.1,0.4,0.2,0.6,0.2c0.3,0,0.6-0.1,0.8-0.4   c0.3-0.4,0.2-1.1-0.2-1.4l-3.6-2.7V11C17.5,10.4,17.1,10,16.5,10z"></path></g></svg>